<svg width="14" height="15" viewBox="0 0 14 15" fill="none" xmlns="http://www.w3.org/2000/svg">
<path d="M1 3.66666H2.33333H13" stroke="#E92929" stroke-linecap="round" stroke-linejoin="round"/>
<path d="M4.33337 3.66667V2.33333C4.33337 1.97971 4.47385 1.64057 4.7239 1.39052C4.97395 1.14048 5.31309 1 5.66671 1H8.33337C8.687 1 9.02613 1.14048 9.27618 1.39052C9.52623 1.64057 9.66671 1.97971 9.66671 2.33333V3.66667M11.6667 3.66667V13C11.6667 13.3536 11.5262 13.6928 11.2762 13.9428C11.0261 14.1929 10.687 14.3333 10.3334 14.3333H3.66671C3.31309 14.3333 2.97395 14.1929 2.7239 13.9428C2.47385 13.6928 2.33337 13.3536 2.33337 13V3.66667H11.6667Z" stroke="#E92929" stroke-linecap="round" stroke-linejoin="round"/>
<path d="M5.66663 7V11" stroke="#E92929" stroke-linecap="round" stroke-linejoin="round"/>
<path d="M8.33337 7V11" stroke="#E92929" stroke-linecap="round" stroke-linejoin="round"/>
</svg>
