<svg width="152" height="36" viewBox="0 0 152 36" fill="none" xmlns="http://www.w3.org/2000/svg">
<path d="M17.808 12.56C18.848 12.56 19.776 12.776 20.592 13.208C21.424 13.64 22.072 14.28 22.536 15.128C23.016 15.976 23.256 17 23.256 18.2V26H20.544V18.608C20.544 17.424 20.248 16.52 19.656 15.896C19.064 15.256 18.256 14.936 17.232 14.936C16.208 14.936 15.392 15.256 14.784 15.896C14.192 16.52 13.896 17.424 13.896 18.608V26H11.184V18.608C11.184 17.424 10.888 16.52 10.296 15.896C9.704 15.256 8.896 14.936 7.872 14.936C6.848 14.936 6.032 15.256 5.424 15.896C4.832 16.52 4.536 17.424 4.536 18.608V26H1.8V12.776H4.536V14.288C4.984 13.744 5.552 13.32 6.24 13.016C6.928 12.712 7.664 12.56 8.448 12.56C9.504 12.56 10.448 12.784 11.28 13.232C12.112 13.68 12.752 14.328 13.2 15.176C13.6 14.376 14.224 13.744 15.072 13.28C15.92 12.8 16.832 12.56 17.808 12.56ZM38.6415 12.776L30.5295 32.216H27.6975L30.3855 25.784L25.1775 12.776H28.2255L31.9455 22.856L35.8095 12.776H38.6415ZM41.8103 26.168C41.3143 26.168 40.8983 26 40.5623 25.664C40.2263 25.328 40.0583 24.912 40.0583 24.416C40.0583 23.92 40.2263 23.504 40.5623 23.168C40.8983 22.832 41.3143 22.664 41.8103 22.664C42.2903 22.664 42.6983 22.832 43.0343 23.168C43.3703 23.504 43.5383 23.92 43.5383 24.416C43.5383 24.912 43.3703 25.328 43.0343 25.664C42.6983 26 42.2903 26.168 41.8103 26.168ZM52.0393 15.008H49.5913V26H46.8313V15.008H45.2713V12.776H46.8313V11.84C46.8313 10.32 47.2313 9.216 48.0313 8.528C48.8473 7.824 50.1193 7.472 51.8473 7.472V9.752C51.0153 9.752 50.4313 9.912 50.0953 10.232C49.7593 10.536 49.5913 11.072 49.5913 11.84V12.776H52.0393V15.008ZM55.8561 11.024C55.3601 11.024 54.9441 10.856 54.6081 10.52C54.2721 10.184 54.1041 9.768 54.1041 9.272C54.1041 8.776 54.2721 8.36 54.6081 8.024C54.9441 7.688 55.3601 7.52 55.8561 7.52C56.3361 7.52 56.7441 7.688 57.0801 8.024C57.4161 8.36 57.5841 8.776 57.5841 9.272C57.5841 9.768 57.4161 10.184 57.0801 10.52C56.7441 10.856 56.3361 11.024 55.8561 11.024ZM57.2001 12.776V26H54.4641V12.776H57.2001ZM67.4642 12.56C68.5042 12.56 69.4322 12.776 70.2482 13.208C71.0802 13.64 71.7282 14.28 72.1922 15.128C72.6562 15.976 72.8882 17 72.8882 18.2V26H70.1762V18.608C70.1762 17.424 69.8802 16.52 69.2882 15.896C68.6962 15.256 67.8882 14.936 66.8642 14.936C65.8402 14.936 65.0242 15.256 64.4162 15.896C63.8242 16.52 63.5282 17.424 63.5282 18.608V26H60.7922V12.776H63.5282V14.288C63.9762 13.744 64.5442 13.32 65.2322 13.016C65.9362 12.712 66.6802 12.56 67.4642 12.56ZM75.4661 19.328C75.4661 18 75.7381 16.824 76.2821 15.8C76.8421 14.776 77.5941 13.984 78.5381 13.424C79.4981 12.848 80.5541 12.56 81.7061 12.56C82.7461 12.56 83.6501 12.768 84.4181 13.184C85.2021 13.584 85.8261 14.088 86.2901 14.696V12.776H89.0501V26H86.2901V24.032C85.8261 24.656 85.1941 25.176 84.3941 25.592C83.5941 26.008 82.6821 26.216 81.6581 26.216C80.5221 26.216 79.4821 25.928 78.5381 25.352C77.5941 24.76 76.8421 23.944 76.2821 22.904C75.7381 21.848 75.4661 20.656 75.4661 19.328ZM86.2901 19.376C86.2901 18.464 86.0981 17.672 85.7141 17C85.3461 16.328 84.8581 15.816 84.2501 15.464C83.6421 15.112 82.9861 14.936 82.2821 14.936C81.5781 14.936 80.9221 15.112 80.3141 15.464C79.7061 15.8 79.2101 16.304 78.8261 16.976C78.4581 17.632 78.2741 18.416 78.2741 19.328C78.2741 20.24 78.4581 21.04 78.8261 21.728C79.2101 22.416 79.7061 22.944 80.3141 23.312C80.9381 23.664 81.5941 23.84 82.2821 23.84C82.9861 23.84 83.6421 23.664 84.2501 23.312C84.8581 22.96 85.3461 22.448 85.7141 21.776C86.0981 21.088 86.2901 20.288 86.2901 19.376ZM99.3158 12.56C100.356 12.56 101.284 12.776 102.1 13.208C102.932 13.64 103.58 14.28 104.044 15.128C104.508 15.976 104.74 17 104.74 18.2V26H102.028V18.608C102.028 17.424 101.732 16.52 101.14 15.896C100.548 15.256 99.7398 14.936 98.7158 14.936C97.6918 14.936 96.8758 15.256 96.2678 15.896C95.6758 16.52 95.3798 17.424 95.3798 18.608V26H92.6438V12.776H95.3798V14.288C95.8278 13.744 96.3958 13.32 97.0838 13.016C97.7878 12.712 98.5318 12.56 99.3158 12.56ZM107.318 19.376C107.318 18.016 107.59 16.824 108.134 15.8C108.694 14.76 109.462 13.96 110.438 13.4C111.414 12.84 112.534 12.56 113.798 12.56C115.398 12.56 116.718 12.944 117.758 13.712C118.814 14.464 119.526 15.544 119.894 16.952H116.942C116.702 16.296 116.318 15.784 115.79 15.416C115.262 15.048 114.598 14.864 113.798 14.864C112.678 14.864 111.782 15.264 111.11 16.064C110.454 16.848 110.126 17.952 110.126 19.376C110.126 20.8 110.454 21.912 111.11 22.712C111.782 23.512 112.678 23.912 113.798 23.912C115.382 23.912 116.43 23.216 116.942 21.824H119.894C119.51 23.168 118.79 24.24 117.734 25.04C116.678 25.824 115.366 26.216 113.798 26.216C112.534 26.216 111.414 25.936 110.438 25.376C109.462 24.8 108.694 24 108.134 22.976C107.59 21.936 107.318 20.736 107.318 19.376ZM134.74 19.064C134.74 19.56 134.708 20.008 134.644 20.408H124.54C124.62 21.464 125.012 22.312 125.716 22.952C126.42 23.592 127.284 23.912 128.308 23.912C129.78 23.912 130.82 23.296 131.428 22.064H134.38C133.98 23.28 133.252 24.28 132.196 25.064C131.156 25.832 129.86 26.216 128.308 26.216C127.044 26.216 125.908 25.936 124.9 25.376C123.908 24.8 123.124 24 122.548 22.976C121.988 21.936 121.708 20.736 121.708 19.376C121.708 18.016 121.98 16.824 122.524 15.8C123.084 14.76 123.86 13.96 124.852 13.4C125.86 12.84 127.012 12.56 128.308 12.56C129.556 12.56 130.668 12.832 131.644 13.376C132.62 13.92 133.38 14.688 133.924 15.68C134.468 16.656 134.74 17.784 134.74 19.064ZM131.884 18.2C131.868 17.192 131.508 16.384 130.804 15.776C130.1 15.168 129.228 14.864 128.188 14.864C127.244 14.864 126.436 15.168 125.764 15.776C125.092 16.368 124.692 17.176 124.564 18.2H131.884Z" fill="white"/>
<path d="M148.689 21.248C148.689 22.048 148.489 22.8 148.089 23.504C147.705 24.208 147.129 24.8 146.361 25.28C145.609 25.76 144.713 26.048 143.673 26.144V28.088H142.113V26.144C140.609 26 139.393 25.528 138.465 24.728C137.537 23.928 137.073 22.872 137.073 21.56H140.001C140.049 22.184 140.249 22.704 140.601 23.12C140.953 23.52 141.457 23.776 142.113 23.888V18.608C141.041 18.336 140.169 18.064 139.497 17.792C138.825 17.504 138.249 17.056 137.769 16.448C137.305 15.84 137.073 15.008 137.073 13.952C137.073 12.624 137.537 11.528 138.465 10.664C139.393 9.784 140.609 9.272 142.113 9.128V7.184H143.673V9.128C145.081 9.256 146.209 9.704 147.057 10.472C147.921 11.224 148.409 12.264 148.521 13.592H145.593C145.545 13.096 145.353 12.656 145.017 12.272C144.681 11.872 144.233 11.6 143.673 11.456V16.64C144.745 16.896 145.617 17.168 146.289 17.456C146.961 17.728 147.529 18.168 147.993 18.776C148.457 19.368 148.689 20.192 148.689 21.248ZM139.857 13.808C139.857 14.464 140.049 14.976 140.433 15.344C140.833 15.712 141.393 16.008 142.113 16.232V11.384C141.425 11.464 140.873 11.712 140.457 12.128C140.057 12.544 139.857 13.104 139.857 13.808ZM143.673 23.888C144.377 23.776 144.929 23.496 145.329 23.048C145.729 22.584 145.929 22.032 145.929 21.392C145.929 20.752 145.729 20.256 145.329 19.904C144.945 19.536 144.393 19.24 143.673 19.016V23.888Z" fill="#49AA26"/>
</svg>
